HIERARCHY
ROOT Hips
{
	OFFSET -0.001795 -0.223333 0.028219
	CHANNELS 6 Xposition Yposition Zposition Zrotation Yrotation Xrotation 
	JOINT LeftUpLeg
	{
		OFFSET 0.069520 -0.091406 -0.006815
		CHANNELS 3 Zrotation Yrotation Xrotation
		JOINT LeftLeg
		{
			OFFSET 0.034277 -0.375199 -0.004496
			CHANNELS 3 Zrotation Yrotation Xrotation
			JOINT LeftFoot
			{
				OFFSET -0.013596 -0.397961 -0.043693
				CHANNELS 3 Zrotation Yrotation Xrotation
				JOINT LeftToe
				{
					OFFSET 0.026358 -0.055791 0.119288
					CHANNELS 3 Zrotation Yrotation Xrotation
					End Site
					{
						OFFSET 0.000000 0.000000 0.000000
					}
				}
			}
		}
	}
	JOINT RightUpLeg
	{
		OFFSET -0.067670 -0.090522 -0.004320
		CHANNELS 3 Zrotation Yrotation Xrotation
		JOINT RightLeg
		{
			OFFSET -0.038290 -0.382569 -0.008850
			CHANNELS 3 Zrotation Yrotation Xrotation
			JOINT RightFoot
			{
				OFFSET 0.015774 -0.398415 -0.042312
				CHANNELS 3 Zrotation Yrotation Xrotation
				JOINT RightToe
				{
					OFFSET -0.025372 -0.048144 0.123348
					CHANNELS 3 Zrotation Yrotation Xrotation
					End Site
					{
						OFFSET 0.000000 0.000000 0.000000
					}
				}
			}
		}
	}
	JOINT Spine
	{
		OFFSET -0.002533 0.108963 -0.026696
		CHANNELS 3 Zrotation Yrotation Xrotation
		JOINT Spine1
		{
			OFFSET 0.005487 0.135180 0.001092
			CHANNELS 3 Zrotation Yrotation Xrotation
			JOINT Spine2
			{
				OFFSET 0.001457 0.052922 0.025425
				CHANNELS 3 Zrotation Yrotation Xrotation
				JOINT Neck
				{
					OFFSET -0.002778 0.213870 -0.042857
					CHANNELS 3 Zrotation Yrotation Xrotation
					JOINT Head
					{
						OFFSET 0.005152 0.064970 0.051349
						CHANNELS 3 Zrotation Yrotation Xrotation
						End Site
						{
							OFFSET 0.000000 0.000000 0.000000
						}
					}
				}
				JOINT LeftShoulder
				{
					OFFSET 0.078845 0.121749 -0.034090
					CHANNELS 3 Zrotation Yrotation Xrotation
					JOINT LeftArm
					{
						OFFSET 0.090977 0.030469 -0.008868
						CHANNELS 3 Zrotation Yrotation Xrotation
						JOINT LeftForeArm
						{
							OFFSET 0.259612 -0.012772 -0.027456
							CHANNELS 3 Zrotation Yrotation Xrotation
							JOINT LeftHand
							{
								OFFSET 0.249234 0.008986 -0.001171
								CHANNELS 3 Zrotation Yrotation Xrotation
								End Site
								{
									OFFSET 0.000000 0.000000 0.000000
								}
							}
						}
					}
				}
				JOINT RightShoulder
				{
					OFFSET -0.081759 0.118833 -0.038615
					CHANNELS 3 Zrotation Yrotation Xrotation
					JOINT RightArm
					{
						OFFSET -0.096012 0.032551 -0.009143
						CHANNELS 3 Zrotation Yrotation Xrotation
						JOINT RightForeArm
						{
							OFFSET -0.253742 -0.013329 -0.021401
							CHANNELS 3 Zrotation Yrotation Xrotation
							JOINT RightHand
							{
								OFFSET -0.255298 0.007772 -0.005559
								CHANNELS 3 Zrotation Yrotation Xrotation
								End Site
								{
									OFFSET 0.000000 0.000000 0.000000
								}
							}
						}
					}
				}
			}
		}
	}
}
MOTION
Frames: 7
Frame Time: 0.050000
0.157010 0.927635 1.114069 -1.642854 0.569041 0.534721 -5.285024 -0.836582 -6.615763 -2.499748 0.177654 7.148867 6.512477 13.591286 0.661608 0.000000 0.000000 0.000000 -7.869104 0.636493 -14.872924 4.061386 -0.396095 17.865512 -8.073144 -19.814759 14.546827 0.000000 0.000000 0.000000 -1.761629 -0.295165 11.820616 -2.820555 1.350592 8.318230 2.544833 2.090638 7.694923 -4.433077 4.058236 -17.594463 0.000000 0.000000 0.000000 -23.288633 -16.309735 6.821474 -46.507461 -15.737992 0.302837 -22.033809 -86.908725 24.815981 0.000000 0.000000 0.000000 20.359107 23.729484 12.250023 46.908155 23.261895 3.942071 -73.364795 70.208127 -49.947855 0.000000 0.000000 0.000000 
0.156283 0.927704 1.113804 -1.570718 0.702138 0.518420 -5.373245 -0.815192 -6.437598 -2.386787 0.161031 6.839099 6.436791 13.439964 0.684089 0.000000 0.000000 0.000000 -7.871580 0.629385 -14.807146 4.011371 -0.389057 17.803769 -8.140467 -19.914380 14.529385 0.000000 0.000000 0.000000 -1.887772 -0.296671 12.367286 -2.746694 1.302897 8.247727 2.476691 2.059266 7.632729 -4.559314 4.138014 -17.868533 0.000000 0.000000 0.000000 -23.389632 -16.075586 6.671817 -46.602945 -15.922521 0.385956 -8.123263 -86.550116 11.513990 0.000000 0.000000 0.000000 20.197012 23.389030 12.028528 47.731970 23.184068 4.025501 -69.603645 70.510570 -47.091352 0.000000 0.000000 0.000000 
0.155372 0.927626 1.113769 -1.551631 0.690584 0.468792 -5.426050 -0.794609 -6.268101 -2.226411 0.137500 6.636903 6.442182 13.444271 0.647529 0.000000 0.000000 0.000000 -7.743097 0.639754 -14.711486 3.861785 -0.348306 17.734940 -8.150568 -19.932614 14.404325 0.000000 0.000000 0.000000 -1.831350 -0.314344 12.769682 -2.797255 1.332280 8.418465 2.384998 1.882316 7.367277 -4.447733 4.043740 -17.460360 0.000000 0.000000 0.000000 -23.293239 -15.825608 6.566790 -46.994227 -15.461782 0.222954 2.488048 -85.959779 1.558567 0.000000 0.000000 0.000000 19.939045 23.200786 11.807005 48.590474 22.579858 3.927544 -65.852693 71.149307 -44.642291 0.000000 0.000000 0.000000 
0.154382 0.927675 1.113771 -1.524013 0.639393 0.482116 -5.457463 -0.784341 -6.183278 -2.108279 0.121497 6.461200 6.455873 13.479450 0.678757 0.000000 0.000000 0.000000 -7.710750 0.645698 -14.730196 3.869338 -0.347808 17.725536 -8.139915 -19.920338 14.325865 0.000000 0.000000 0.000000 -1.834740 -0.326215 13.258352 -2.903246 1.394904 8.242138 2.446389 1.825955 7.399639 -4.316779 3.954823 -17.320021 0.000000 0.000000 0.000000 -23.305364 -15.799258 6.585322 -47.216766 -15.367679 0.180784 11.216105 -84.935809 -6.407636 0.000000 0.000000 0.000000 19.644027 22.956258 11.581512 49.268439 22.070151 3.808473 -62.001058 71.877213 -42.123329 0.000000 0.000000 0.000000 
0.153402 0.927606 1.113644 -1.542987 0.512281 0.511627 -5.503984 -0.777824 -6.120856 -1.882397 0.088946 6.281499 6.514393 13.597484 0.667791 0.000000 0.000000 0.000000 -7.673061 0.655114 -14.756562 3.953810 -0.364872 17.653746 -8.099710 -19.865554 14.204817 0.000000 0.000000 0.000000 -1.742784 -0.341145 13.444159 -2.894723 1.395577 8.333404 2.277022 1.624724 7.358844 -4.252165 3.888574 -17.055297 0.000000 0.000000 0.000000 -23.285271 -15.822489 6.675871 -47.335338 -15.349317 0.157964 18.019719 -83.592428 -12.253936 0.000000 0.000000 0.000000 19.744119 23.132620 11.631849 49.320284 21.354911 3.532208 -58.479823 72.510708 -39.865688 0.000000 0.000000 0.000000 
0.152605 0.927584 1.113299 -1.556697 0.196607 0.837112 -5.573133 -0.812479 -6.368680 -1.650464 0.058790 6.043255 6.641947 13.876387 0.764164 0.000000 0.000000 0.000000 -7.632779 0.681478 -14.923136 3.995361 -0.362493 17.172581 -7.982657 -19.701536 14.024381 0.000000 0.000000 0.000000 -1.576259 -0.364284 13.760004 -3.062614 1.501496 8.468424 2.068193 1.661043 6.915689 -4.022862 3.727898 -16.696665 0.000000 0.000000 0.000000 -22.995969 -15.974776 6.764839 -47.532754 -15.257196 0.161245 23.079063 -82.007997 -16.333842 0.000000 0.000000 0.000000 19.441186 23.230659 11.606668 49.728154 21.126326 3.535622 -53.821174 72.188272 -36.025272 0.000000 0.000000 0.000000 
0.152123 0.927785 1.112702 -1.555962 0.116277 1.027581 -5.771857 -0.841793 -6.532278 -1.238510 -0.003846 5.893036 6.671577 13.961428 0.907682 0.000000 0.000000 0.000000 -7.754088 0.678851 -15.037543 4.251672 -0.425885 16.896665 -7.946555 -19.650248 14.043839 0.000000 0.000000 0.000000 -1.391721 -0.399543 14.205560 -3.086479 1.517444 8.687438 1.727652 1.493624 6.528839 -3.866167 3.617068 -16.918795 0.000000 0.000000 0.000000 -22.947048 -16.153866 6.909247 -47.576773 -15.794483 0.394032 28.315355 -79.936195 -20.142112 0.000000 0.000000 0.000000 19.319095 23.729537 11.822286 49.939833 21.131480 3.610546 -48.974309 70.875488 -31.587011 0.000000 0.000000 0.000000 
